{"accessors":[{"name":"bullet_Cube.005-Mesh_positions","componentType":5126,"count":8,"min":[-1.6926159858703613,-0.021714000031352043,-1.2410169839859009],"max":[7.334266185760498,0.021714000031352043,-1.197587013244629],"type":"VEC3","bufferView":0,"byteOffset":0},{"name":"bullet_Cube.005-Mesh_normals","componentType":5126,"count":8,"min":[0,-1,-1],"max":[0,0,0],"type":"VEC3","bufferView":0,"byteOffset":165468},{"name":"bullet_Cube.005-Mesh_texcoords","componentType":5126,"count":8,"min":[0,0],"max":[1,1],"type":"VEC2","bufferView":1,"byteOffset":0},{"name":"bullet_Cube.005-Mesh_0_indices","componentType":5123,"count":12,"min":[0],"max":[7],"type":"SCALAR","bufferView":2,"byteOffset":0},{"name":"Cube.002_Cube.003-Mesh_positions","componentType":5126,"count":62,"min":[-0.922989010810852,-0.6110110282897949,-0.07410699874162674],"max":[-0.3095790147781372,0.39483100175857544,0.07410699874162674],"type":"VEC3","bufferView":0,"byteOffset":96},{"name":"Cube.002_Cube.003-Mesh_normals","componentType":5126,"count":62,"min":[-0.9531000256538391,-0.9846000075340271,-0.8715999722480774],"max":[0.9524000287055969,0.9846000075340271,0.8765000104904175],"type":"VEC3","bufferView":0,"byteOffset":165564},{"name":"Cube.002_Cube.003-Mesh_texcoords","componentType":5126,"count":62,"min":[0.2540999948978424,0.41519999504089355],"max":[0.9945999979972839,0.9606000185012817],"type":"VEC2","bufferView":1,"byteOffset":64},{"name":"Cube.002_Cube.003-Mesh_0_indices","componentType":5123,"count":168,"min":[0],"max":[61],"type":"SCALAR","bufferView":2,"byteOffset":24},{"name":"hulle_Cube-Mesh_positions","componentType":5126,"count":12,"min":[-0.07643300294876099,-0.02196500077843666,-1.031445026397705],"max":[0.11436399817466736,0.02196500077843666,-0.9875149726867676],"type":"VEC3","bufferView":0,"byteOffset":840},{"name":"hulle_Cube-Mesh_normals","componentType":5126,"count":12,"min":[-0.5773000121116638,-0.6815000176429749,-0.6815000176429749],"max":[0.7967000007629395,0.6815000176429749,0.6815000176429749],"type":"VEC3","bufferView":0,"byteOffset":166308},{"name":"hulle_Cube-Mesh_0_indices","componentType":5123,"count":60,"min":[0],"max":[11],"type":"SCALAR","bufferView":2,"byteOffset":360},{"name":"Gun_Cube.001-Mesh_positions","componentType":5126,"count":11883,"min":[-0.9760249853134155,-0.5238860249519348,-0.12610800564289093],"max":[0.8741850256919861,0.5667499899864197,0.12390200048685074],"type":"VEC3","bufferView":0,"byteOffset":984},{"name":"Gun_Cube.001-Mesh_normals","componentType":5126,"count":11883,"min":[-1,-1,-1],"max":[1,1,1],"type":"VEC3","bufferView":0,"byteOffset":166452},{"name":"Gun_Cube.001-Mesh_texcoords","componentType":5126,"count":11883,"min":[0.001500000013038516,0.0052999998442828655],"max":[0.9977999925613403,0.9959999918937683],"type":"VEC2","bufferView":1,"byteOffset":560},{"name":"Gun_Cube.001-Mesh_0_indices","componentType":5123,"count":59157,"min":[0],"max":[11882],"type":"SCALAR","bufferView":2,"byteOffset":480},{"name":"Cube.005_Cube.000-Mesh_positions","componentType":5126,"count":1677,"min":[-0.7644929885864258,0.277554988861084,-0.1015309989452362],"max":[0.8523499965667725,0.6452509760856628,0.1015309989452362],"type":"VEC3","bufferView":0,"byteOffset":143580},{"name":"Cube.005_Cube.000-Mesh_normals","componentType":5126,"count":1677,"min":[-1,-1,-1],"max":[1,1,1],"type":"VEC3","bufferView":0,"byteOffset":309048},{"name":"Cube.005_Cube.000-Mesh_texcoords","componentType":5126,"count":1677,"min":[0.02759999968111515,0.13109999895095825],"max":[0.9957000017166138,0.9886000156402588],"type":"VEC2","bufferView":1,"byteOffset":95624},{"name":"Cube.005_Cube.000-Mesh_0_indices","componentType":5123,"count":5610,"min":[0],"max":[1676],"type":"SCALAR","bufferView":2,"byteOffset":118796},{"name":"muzzle_fire_Plane.002-Mesh_positions","componentType":5126,"count":13,"min":[0.7950419783592224,0.07545799762010574,-0.9777519702911377],"max":[1.8424609899520874,0.9321839809417725,0.9777519702911377],"type":"VEC3","bufferView":0,"byteOffset":163704},{"name":"muzzle_fire_Plane.002-Mesh_normals","componentType":5126,"count":13,"min":[0,-0.9546999931335449,-0.6787999868392944],"max":[1,1,1],"type":"VEC3","bufferView":0,"byteOffset":329172},{"name":"muzzle_fire_Plane.002-Mesh_texcoords","componentType":5126,"count":13,"min":[-0.05739999935030937,0],"max":[1.0297000408172607,1],"type":"VEC2","bufferView":1,"byteOffset":109040},{"name":"muzzle_fire_Plane.002-Mesh_0_indices","componentType":5123,"count":24,"min":[0],"max":[12],"type":"SCALAR","bufferView":2,"byteOffset":130016},{"name":"Gun_trigger_Cube.002-Mesh_positions","componentType":5126,"count":134,"min":[-0.280580997467041,0.04205799847841263,-0.016169000416994095],"max":[-0.1201540008187294,0.2607499957084656,0.014872999861836433],"type":"VEC3","bufferView":0,"byteOffset":163860},{"name":"Gun_trigger_Cube.002-Mesh_normals","componentType":5126,"count":134,"min":[-0.9886999726295471,-0.9929999709129333,-1],"max":[0.9987000226974487,0.9929999709129333,1],"type":"VEC3","bufferView":0,"byteOffset":329328},{"name":"Gun_trigger_Cube.002-Mesh_texcoords","componentType":5126,"count":134,"min":[0.46059998869895935,0.18379999697208405],"max":[0.9941999912261963,0.7020000219345093],"type":"VEC2","bufferView":1,"byteOffset":109144},{"name":"Gun_trigger_Cube.002-Mesh_0_indices","componentType":5123,"count":456,"min":[0],"max":[133],"type":"SCALAR","bufferView":2,"byteOffset":130064}],"asset":{"generator":"obj2gltf","version":"2.0"},"buffers":[{"name":"Handgun_obj","byteLength":572128,"uri":"data:application/octet-stream;base64,"}],"bufferViews":[{"name":"bufferView_0","buffer":0,"byteLength":330936,"byteOffset":0,"byteStride":12,"target":34962},{"name":"bufferView_1","buffer":0,"byteLength":110216,"byteOffset":330936,"byteStride":8,"target":34962},{"name":"bufferView_2","buffer":0,"byteLength":130976,"byteOffset":441152,"target":34963}],"materials":[{"name":"Material.001","pbrMetallicRoughness":{"baseColorFactor":[0.64,0.64,0.64,1],"metallicFactor":0,"roughnessFactor":0.903921569},"emissiveFactor":[0,0,0],"alphaMode":"OPAQUE","doubleSided":false},{"name":"handgun","pbrMetallicRoughness":{"baseColorFactor":[0.64,0.64,0.64,1],"metallicFactor":0,"roughnessFactor":0.903921569},"emissiveFactor":[0,0,0],"alphaMode":"OPAQUE","doubleSided":false},{"name":"Material.004","pbrMetallicRoughness":{"baseColorFactor":[0.64,0.64,0.64,1],"metallicFactor":0,"roughnessFactor":0.903921569},"emissiveFactor":[0,0,0],"alphaMode":"OPAQUE","doubleSided":false},{"name":"handgun_handgun_C.jpg","pbrMetallicRoughness":{"baseColorFactor":[0.64,0.64,0.64,1],"metallicFactor":0,"roughnessFactor":0.903921569},"emissiveFactor":[0,0,0],"alphaMode":"OPAQUE","doubleSided":false},{"name":"Fire.001","pbrMetallicRoughness":{"baseColorFactor":[0.64,0.64,0.64,1],"metallicFactor":0,"roughnessFactor":0.903921569},"emissiveFactor":[0,0,0],"alphaMode":"OPAQUE","doubleSided":false}],"meshes":[{"name":"bullet_Cube.005-Mesh","primitives":[{"attributes":{"POSITION":0,"NORMAL":1,"TEXCOORD_0":2},"indices":3,"material":0,"mode":4}]},{"name":"Cube.002_Cube.003-Mesh","primitives":[{"attributes":{"POSITION":4,"NORMAL":5,"TEXCOORD_0":6},"indices":7,"material":1,"mode":4}]},{"name":"hulle_Cube-Mesh","primitives":[{"attributes":{"POSITION":8,"NORMAL":9},"indices":10,"material":2,"mode":4}]},{"name":"Gun_Cube.001-Mesh","primitives":[{"attributes":{"POSITION":11,"NORMAL":12,"TEXCOORD_0":13},"indices":14,"material":3,"mode":4}]},{"name":"Cube.005_Cube.000-Mesh","primitives":[{"attributes":{"POSITION":15,"NORMAL":16,"TEXCOORD_0":17},"indices":18,"material":1,"mode":4}]},{"name":"muzzle_fire_Plane.002-Mesh","primitives":[{"attributes":{"POSITION":19,"NORMAL":20,"TEXCOORD_0":21},"indices":22,"material":4,"mode":4}]},{"name":"Gun_trigger_Cube.002-Mesh","primitives":[{"attributes":{"POSITION":23,"NORMAL":24,"TEXCOORD_0":25},"indices":26,"material":1,"mode":4}]}],"nodes":[{"name":"bullet_Cube.005","mesh":0},{"name":"Cube.002_Cube.003","mesh":1},{"name":"hulle_Cube","mesh":2},{"name":"Gun_Cube.001","mesh":3},{"name":"Cube.005_Cube.000","mesh":4},{"name":"muzzle_fire_Plane.002","mesh":5},{"name":"Gun_trigger_Cube.002","mesh":6}],"scene":0,"scenes":[{"nodes":[0,1,2,3,4,5,6]}]}
